<?xml version="1.0" encoding="UTF-8"?>
<svg width="100px" height="6px" viewBox="0 0 100 6" version="1.1" xmlns="http://www.w3.org/2000/svg" xmlns:xlink="http://www.w3.org/1999/xlink">
    <!-- Generator: Sketch 44.1 (41455) - http://www.bohemiancoding.com/sketch -->
    <title>Group 3</title>
    <desc>Created with Sketch.</desc>
    <defs>
        <filter x="-0.4%" y="-33.3%" width="100.9%" height="200.0%" filterUnits="objectBoundingBox" id="filter-1">
            <feOffset dx="0" dy="1" in="SourceAlpha" result="shadowOffsetOuter1"></feOffset>
            <feGaussianBlur stdDeviation="0.5" in="shadowOffsetOuter1" result="shadowBlurOuter1"></feGaussianBlur>
            <feColorMatrix values="0 0 0 0 0   0 0 0 0 0   0 0 0 0 0  0 0 0 0 0" type="matrix" in="shadowBlurOuter1" result="shadowMatrixOuter1"></feColorMatrix>
            <feMerge>
                <feMergeNode in="shadowMatrixOuter1"></feMergeNode>
                <feMergeNode in="SourceGraphic"></feMergeNode>
            </feMerge>
        </filter>
    </defs>
    <g id="Page-1" stroke="none" stroke-width="1" fill="none" fill-rule="evenodd">
        <g id="Desktop-Copy-5" transform="translate(-670.000000, -1440.000000)">
            <g id="Group-Copy" transform="translate(-80.000000, 1440.000000)">
                <g id="Group-Copy-4" filter="url(#filter-1)" transform="translate(400.000000, 0.000000)">
                    <g id="Group-3" transform="translate(350.000000, 0.000000)">
                        <polygon id="Page-1-Copy-14" fill="#F6F6F6" points="0 -1.42108547e-14 0 6 20.3150373 6 30 -1.42108547e-14"></polygon>
                        <polygon id="Page-1-Copy-12" fill="#29E59F" transform="translate(35.000000, 3.000000) rotate(-180.000000) translate(-35.000000, -3.000000) " points="20 -1.42108547e-14 20 6 40.3150373 6 50 -1.42108547e-14"></polygon>
                        <polygon id="Page-1" fill="#29E59F" points="50 -1.42108547e-14 50 6 70.3150373 6 80 -1.42108547e-14"></polygon>
                        <polygon id="Page-1-Copy" fill="#F6F6F6" transform="translate(85.000000, 3.000000) rotate(-180.000000) translate(-85.000000, -3.000000) " points="70 -1.42108547e-14 70 6 90.3150373 6 100 -1.42108547e-14"></polygon>
                    </g>
                </g>
            </g>
        </g>
    </g>
</svg>