<?xml version="1.0" encoding="UTF-8"?>
<svg width="250px" height="250px" viewBox="0 0 250 250" version="1.1" xmlns="http://www.w3.org/2000/svg" xmlns:xlink="http://www.w3.org/1999/xlink">
    <!-- Generator: Sketch 44.1 (41455) - http://www.bohemiancoding.com/sketch -->
    <title>Artboard 4 Copy 3</title>
    <desc>Created with Sketch.</desc>
    <defs>
        <polygon id="path-1" points="0 153.92 136.888 153.92 136.888 -2.84217094e-14 0 -2.84217094e-14"></polygon>
    </defs>
    <g id="Page-1" stroke="none" stroke-width="1" fill="none" fill-rule="evenodd">
        <g id="Artboard-4-Copy-3">
            <g id="Page-1" transform="translate(57.000000, 48.000000)">
                <path d="M51.2585,104.8066 L85.4445,104.8066 C85.4445,104.8066 84.7685,127.7536 96.2095,127.7536 L39.5495,127.7536 C52.6275,127.7536 51.2585,104.8066 51.2585,104.8066 Z" id="Fill-1" fill="#29E59F"></path>
                <mask id="mask-2" fill="white">
                    <use xlink:href="#path-1"></use>
                </mask>
                <g id="Clip-4"></g>
                <polygon id="Fill-3" fill="#29E59F" mask="url(#mask-2)" points="17.19 79.43 119.698 79.43 119.698 17.717 17.19 17.717"></polygon>
                <path d="M6.308,90.838 L130.579,90.838 L130.579,6.309 L6.308,6.309 L6.308,90.838 Z M50.349,124.902 C53.121,121.535 54.566,116.869 54.566,111.024 L54.566,108.501 L82.322,108.501 L82.322,111.024 C82.322,116.869 83.767,121.535 86.539,124.902 L50.349,124.902 Z M0,90.838 L0,97.146 L0,108.501 L48.258,108.501 L48.258,111.024 C48.258,120.622 43.978,124.902 34.38,124.902 L34.38,128.057 L34.38,131.211 L102.508,131.211 L102.508,128.057 L102.508,124.902 C92.91,124.902 88.631,120.622 88.631,111.024 L88.631,108.501 L136.888,108.501 L136.888,97.146 L136.888,90.838 L136.888,-2.84217094e-14 L0,-2.84217094e-14 L0,90.838 Z" id="Fill-5" fill="#333333" mask="url(#mask-2)"></path>
                <path d="M20.5017,34.8721 L45.3687,52.8311 L20.5017,70.7921 L20.5017,34.8721 Z M20.5017,20.5021 L116.3867,20.5021 L116.3867,27.0901 L114.1527,28.7031 L68.4437,61.7151 L22.7347,28.7031 L20.5017,27.0901 L20.5017,20.5021 Z M116.3867,70.7921 L91.5197,52.8311 L116.3867,34.8721 L116.3867,70.7921 Z M23.1717,76.6441 L50.7567,56.7231 L68.4437,69.4961 L86.1317,56.7231 L113.7157,76.6441 L23.1717,76.6441 Z M14.1927,82.9531 L122.6937,82.9531 L122.6937,14.1931 L14.1927,14.1931 L14.1927,82.9531 Z" id="Fill-6" fill="#333333" mask="url(#mask-2)"></path>
                <path d="M6.308,147.612 L96.209,147.612 L96.209,142.565 L6.308,142.565 L6.308,147.612 Z M0,153.92 L102.519,153.92 L102.519,136.257 L0,136.257 L0,153.92 Z" id="Fill-7" fill="#333333" mask="url(#mask-2)"></path>
                <path d="M114.2468,147.6123 C114.3378,146.3303 114.5488,145.2383 115.0378,144.5293 C115.9388,143.2253 118.4088,142.5653 122.3788,142.5653 C126.3498,142.5653 128.8188,143.2253 129.7198,144.5293 C130.2098,145.2383 130.4208,146.3303 130.5118,147.6123 L114.2468,147.6123 Z M122.3788,136.2573 C107.8698,136.2573 107.8698,144.6423 107.8698,150.7653 L107.8698,153.9203 L136.8888,153.9203 L136.8888,150.7653 C136.8888,144.6423 136.8888,136.2573 122.3788,136.2573 L122.3788,136.2573 Z" id="Fill-8" fill="#333333" mask="url(#mask-2)"></path>
            </g>
        </g>
    </g>
</svg>