<?xml version="1.0" encoding="UTF-8"?>
<svg width="350px" height="230px" viewBox="0 0 350 230" version="1.1" xmlns="http://www.w3.org/2000/svg" xmlns:xlink="http://www.w3.org/1999/xlink">
    <!-- Generator: Sketch 44.1 (41455) - http://www.bohemiancoding.com/sketch -->
    <title>Artboard 4</title>
    <desc>Created with Sketch.</desc>
    <defs></defs>
    <g id="Page-1" stroke="none" stroke-width="1" fill="none" fill-rule="evenodd">
        <g id="Artboard-4">
            <g id="Page-1" transform="translate(38.000000, 59.000000)">
                <path d="M122.658,70.298 L144.809,70.298 L144.809,57.171 L122.658,57.171 L122.658,70.298 Z M77.288,102.695 L105.757,102.695 L105.757,57.172 L77.288,57.172 L77.288,102.695 Z M37.498,70.298 L59.649,70.298 L59.649,57.171 L37.498,57.171 L37.498,70.298 Z M167.819,40.968 L167.819,51.839 L161.665,51.839 L161.665,49.582 L90.699,16.356 L19.732,49.582 L19.732,108.654 L178.69,108.654 L178.69,57.171 L231.812,57.171 L231.812,108.654 L249.246,108.654 L249.246,40.968 L167.819,40.968 Z" id="Fill-1" fill="#FFFFFF"></path>
                <path d="M90.5543,0 L59.9283,14.528 L59.9283,7.806 L37.2193,7.806 L37.2193,25.3 L10.1443,38.143 L10.1453,57.832 L17.0323,54.544 L17.0323,104.968 L0.0003,104.968 L0.0003,111.276 L17.0323,111.276 L73.8063,111.276 L108.5013,111.276 L158.9663,111.276 L165.2753,111.276 L175.6573,111.276 L235.3883,111.276 L252.0803,111.276 L273.6323,111.276 L273.6323,104.968 L252.0803,104.968 L252.0803,44.394 L261.4853,44.394 L261.4853,27.015 L147.5083,27.015 L90.5583,0 L90.5543,0 Z M16.4533,42.132 L17.0323,41.857 L17.7353,41.523 L41.4843,30.258 L59.9283,21.509 L90.5563,6.981 L146.4873,33.512 L149.9903,35.173 L153.4923,36.835 L156.1303,38.085 L158.9663,39.431 L162.1203,40.928 L162.7773,41.24 L164.6583,42.132 L164.6583,44.394 L164.6573,47.83 L162.1203,46.617 L158.9663,45.112 L157.4643,44.394 L147.5943,39.681 L90.5563,12.443 L59.9283,27.068 L53.2493,30.258 L28.7383,41.963 L23.3413,44.54 L20.1873,46.048 L17.0323,47.553 L16.4543,47.83 L16.4533,42.132 Z M23.3413,51.53 L41.9533,42.643 L90.5563,19.433 L150.8923,48.245 L158.9663,52.102 L158.9663,104.968 L114.1793,104.968 L114.1793,99.291 L108.5013,99.291 L108.5013,53.871 L73.8063,53.871 L73.8063,99.291 L68.1283,99.291 L68.1283,104.968 L23.3413,104.968 L23.3413,51.53 Z M167.9863,36.729 L162.1203,33.947 L160.8053,33.322 L252.0803,33.322 L255.1763,33.322 L255.1763,38.085 L252.0803,38.085 L248.9263,38.085 L245.7723,38.085 L170.8473,38.085 L167.9863,36.729 Z M170.9663,44.394 L202.2233,44.394 L245.7723,44.394 L245.7723,104.968 L235.3883,104.968 L235.3883,53.871 L175.6573,53.871 L175.6573,104.968 L165.2753,104.968 L165.2753,55.113 L170.9653,57.832 L170.9663,44.394 Z M181.9643,104.968 L229.0813,104.968 L229.0813,60.18 L181.9643,60.18 L181.9643,104.968 Z M80.1143,99.29 L102.1923,99.29 L102.1923,60.18 L80.1143,60.18 L80.1143,99.29 Z" id="Fill-2" fill="#333333"></path>
                <path d="M125.533,87.936 L141.934,87.936 L141.934,73.985 L125.533,73.985 L125.533,87.936 Z M125.533,67.676 L141.934,67.676 L141.934,60.18 L125.533,60.18 L125.533,67.676 Z M119.225,73.985 L119.225,94.245 L148.242,94.245 L148.242,73.985 L148.242,53.872 L119.225,53.872 L119.225,73.985 Z" id="Fill-3" fill="#333333"></path>
                <path d="M40.372,87.936 L56.773,87.936 L56.773,73.985 L40.372,73.985 L40.372,87.936 Z M40.372,67.676 L56.773,67.676 L56.773,60.18 L40.372,60.18 L40.372,67.676 Z M34.065,73.985 L34.065,94.245 L63.081,94.245 L63.081,73.985 L63.081,53.872 L34.065,53.872 L34.065,73.985 Z" id="Fill-4" fill="#333333"></path>
            </g>
        </g>
    </g>
</svg>