<?xml version="1.0" encoding="UTF-8"?>
<svg width="250px" height="250px" viewBox="0 0 250 250" version="1.1" xmlns="http://www.w3.org/2000/svg" xmlns:xlink="http://www.w3.org/1999/xlink">
    <!-- Generator: Sketch 44.1 (41455) - http://www.bohemiancoding.com/sketch -->
    <title>Artboard 4 Copy 4</title>
    <desc>Created with Sketch.</desc>
    <defs></defs>
    <g id="Page-1" stroke="none" stroke-width="1" fill="none" fill-rule="evenodd">
        <g id="Artboard-4-Copy-4">
            <g id="Page-1" transform="translate(62.000000, 51.000000)">
                <polygon id="Fill-1" fill="#29E59F" points="109.9191 51.7715 106.5821 51.7715 106.5821 99.1885 84.2641 114.4425 63.8471 100.6725 42.7061 114.4425 18.3361 99.1885 18.3361 51.7715 15.6121 51.7715 3.2011 60.4115 3.2011 146.6055 122.4871 146.6055 122.4871 60.4115"></polygon>
                <path d="M15.6123,0.0003 L15.6123,48.5963 L0.0003,59.5793 L0.0003,148.2423 L125.5333,148.2423 L125.5333,59.5783 L109.9193,48.5953 L109.9193,0.0003 L15.6123,0.0003 Z M22.3353,96.6603 L21.9213,96.3693 L21.9213,96.2983 L21.9213,51.8713 L21.9213,48.0153 L21.9213,44.1583 L21.9213,6.3073 L103.6113,6.3073 L103.6113,44.1583 L103.6113,48.0153 L103.6113,51.8713 L103.6113,96.1863 L103.6113,96.3693 L102.5823,97.0943 L83.4013,110.5863 L62.7663,96.0703 L42.1303,110.5863 L22.3353,96.6603 Z M109.9193,56.3093 L119.2253,62.8553 L119.2253,85.3863 L109.9193,91.9313 L109.9193,56.3093 Z M6.3083,85.3863 L6.3083,62.8553 L15.6123,56.3093 L15.6123,91.9313 L6.3083,85.3863 Z M88.8833,114.4423 L119.2253,93.0993 L119.2253,135.7873 L88.8833,114.4423 Z M6.3083,93.0993 L36.6493,114.4423 L6.3083,135.7873 L6.3083,93.0993 Z M62.7663,103.7833 L116.9983,141.9343 L8.5343,141.9343 L62.7663,103.7833 Z" id="Fill-2" fill="#333333"></path>
                <polygon id="Fill-3" fill="#333333" points="32.96 81.663 92.572 81.663 92.572 75.354 32.96 75.354"></polygon>
                <polygon id="Fill-4" fill="#333333" points="32.96 68.758 92.572 68.758 92.572 62.45 32.96 62.45"></polygon>
                <polygon id="Fill-5" fill="#333333" points="32.96 55.856 92.572 55.856 92.572 49.547 32.96 49.547"></polygon>
                <polygon id="Fill-6" fill="#333333" points="90.9328 42.9532 92.5728 42.9532 92.5728 40.2502 92.5728 36.6442 87.4478 36.6442 81.9648 36.6442 43.5678 36.6442 38.0848 36.6442 32.9598 36.6442 32.9598 40.2502 32.9598 42.9532 34.5998 42.9532"></polygon>
                <polygon id="Fill-7" fill="#333333" points="47.4611 30.0489 52.9421 30.0489 62.6381 30.0489 62.6381 23.7409 61.9101 23.7409 56.4291 23.7409 50.9451 23.7409 32.9601 23.7409 32.9601 30.0489 41.9791 30.0489"></polygon>
            </g>
        </g>
    </g>
</svg>