<?xml version="1.0" encoding="UTF-8"?>
<svg width="196px" height="43px" viewBox="0 0 196 43" version="1.1" xmlns="http://www.w3.org/2000/svg" xmlns:xlink="http://www.w3.org/1999/xlink">
    <!-- Generator: Sketch 44.1 (41455) - http://www.bohemiancoding.com/sketch -->
    <title>Page 1 Copy 16</title>
    <desc>Created with Sketch.</desc>
    <defs>
        <polygon id="path-1" points="0 42.3076923 195.432741 42.3076923 195.432741 0.0529230769 0 0.0529230769"></polygon>
    </defs>
    <g id="Page-1" stroke="none" stroke-width="1" fill="none" fill-rule="evenodd">
        <g id="Desktop-Copy-5" transform="translate(-622.000000, -24.000000)">
            <g id="Page-1-Copy-16" transform="translate(622.000000, 24.000000)">
                <polygon id="Fill-1" fill="#FFFFFF" points="52.5208907 16.2660923 48.6182796 16.2660923 48.6182796 13.7479385 59.2352981 13.7479385 59.2352981 16.2660923 55.3142611 16.2660923 55.3142611 27.9374769 52.5208907 27.9374769"></polygon>
                <g id="Group-24" transform="translate(0.000000, 0.637908)">
                    <path d="M68.1774,17.6006154 C68.6011963,17.7483077 68.9770852,17.9809231 69.3013815,18.2910769 C69.6256778,18.6012308 69.8762704,19.0221538 70.0494741,19.5501538 C70.226363,20.0818462 70.3148074,20.7095385 70.3148074,21.4369231 L70.3148074,27.3076923 L67.6946407,27.3076923 L67.6946407,22.1052308 C67.6946407,21.2375385 67.539863,20.6283077 67.2339926,20.2701538 C66.924437,19.912 66.445363,19.7347692 65.7967704,19.7347692 C65.0855296,19.7347692 64.5253815,19.9563077 64.1236963,20.4030769 C63.7220111,20.8461538 63.5193259,21.4996923 63.5193259,22.3563077 L63.5193259,27.3003077 L60.9139,27.3003077 L60.9139,13.1107692 L63.5193259,13.1107692 L63.5193259,18.7267692 L63.559863,18.7267692 C63.9541778,18.2910769 64.4221963,17.9550769 64.9639185,17.7224615 C65.5056407,17.4972308 66.0952704,17.3827692 66.7217519,17.3827692 C67.2671593,17.3827692 67.7536037,17.4566154 68.1774,17.6006154 Z" id="Fill-2" fill="#FFFFFF"></path>
                    <path d="M75.6774889,20.1209846 C75.2905444,20.4163692 75.0252111,20.8372923 74.8741185,21.3911385 L79.1673593,21.3911385 C79.0310074,20.8557538 78.7841,20.4422154 78.426637,20.1357538 C78.0691741,19.8366769 77.6158963,19.6852923 77.0631185,19.6852923 C76.5250815,19.6852923 76.0644333,19.8292923 75.6774889,20.1209846 M81.6843407,23.2742154 L74.863063,23.2742154 C75.0215259,23.8502154 75.3163407,24.3080615 75.7548778,24.6403692 C76.1934148,24.9652923 76.7240815,25.1351385 77.3468778,25.1425231 C78.2866,25.1499077 79.0604889,24.7843692 79.6722296,24.0422154 L81.3637296,25.6225231 C80.9251926,26.1837538 80.3466185,26.6268308 79.6353778,26.9628308 C78.9204519,27.2951385 78.0949704,27.4612923 77.1589333,27.4612923 C76.2155259,27.4612923 75.3642481,27.2619077 74.6014148,26.8446769 C73.8422667,26.4348308 73.2452667,25.8403692 72.8067296,25.0686769 C72.3718778,24.2932923 72.1507667,23.4071385 72.1507667,22.4139077 C72.1507667,21.6865231 72.2723778,21.0071385 72.5192852,20.3794462 C72.7661926,19.7517538 73.1015444,19.2200615 73.5290259,18.7806769 C73.9528222,18.3449846 74.4613778,18.0016 75.062063,17.7542154 C75.6553778,17.5068308 76.2966,17.3849846 76.9783593,17.3849846 C77.9143963,17.3849846 78.7509333,17.5954462 79.4769148,18.0237538 C80.2065815,18.4483692 80.7667296,19.0354462 81.1610444,19.7849846 C81.5590444,20.5345231 81.7543593,21.3874462 81.7543593,22.3363692 C81.7543593,22.7979077 81.7322481,23.1117538 81.6843407,23.2742154" id="Fill-4" fill="#FFFFFF"></path>
                    <polygon id="Fill-6" fill="#FFFFFF" points="106.592876 13.1115077 102.137487 27.3010462 99.5394315 27.3010462 96.8713574 17.2062769 96.8418759 17.2062769 94.0890426 27.3010462 91.5020426 27.3010462 87.0429685 13.1115077 90.0316537 13.1115077 92.784487 22.7078154 92.8250241 22.7078154 95.3456907 13.1115077 98.3122648 13.1115077 100.814506 22.7078154 100.851357 22.7078154 103.604191 13.1115077"></polygon>
                    <path d="M113.416365,17.3912615 L113.416365,20.2564923 C113.158402,20.2380308 112.926235,20.2306462 112.727235,20.2306462 C111.949661,20.2306462 111.341606,20.4669538 110.903069,20.9432615 C110.464531,21.4158769 110.247106,22.0251077 110.247106,22.7746462 L110.247106,27.3014154 L107.637994,27.3014154 L107.637994,17.5500308 L110.247106,17.5500308 L110.247106,18.9826462 L110.272902,18.9826462 C110.645106,18.4694154 111.083643,18.0780308 111.584828,17.7937231 C112.093383,17.5204923 112.635106,17.3838769 113.209994,17.3838769 C113.309494,17.3838769 113.375828,17.3838769 113.416365,17.3912615" id="Fill-8" fill="#FFFFFF"></path>
                    <mask id="mask-2" fill="white">
                        <use xlink:href="#path-1"></use>
                    </mask>
                    <g id="Clip-11"></g>
                    <path d="M114.937241,27.3021538 L117.546352,27.3021538 L117.546352,17.5507692 L114.937241,17.5507692 L114.937241,27.3021538 Z M115.42737,15.9593846 C115.176778,15.8153846 114.981463,15.6233846 114.841426,15.3796923 C114.697704,15.136 114.624,14.8664615 114.624,14.5747692 C114.624,14.1427692 114.782463,13.7661538 115.095704,13.4523077 C115.41263,13.1421538 115.792204,12.9833846 116.241796,12.9833846 C116.680333,12.9833846 117.063593,13.1421538 117.376833,13.4523077 C117.697444,13.7661538 117.855907,14.1427692 117.855907,14.5747692 C117.855907,15.0178462 117.697444,15.3944615 117.376833,15.7083077 C117.063593,16.0184615 116.680333,16.1772308 116.241796,16.1772308 C115.950667,16.1772308 115.677963,16.1033846 115.42737,15.9593846 L115.42737,15.9593846 Z" id="Fill-10" fill="#FFFFFF" mask="url(#mask-2)"></path>
                    <path d="M121.132037,26.6401231 C120.634537,26.0936615 120.38763,25.2850462 120.38763,24.2179692 L120.38763,19.7133538 L119.237852,19.7133538 L119.237852,17.5496615 L120.38763,17.5496615 L120.38763,14.3595077 L122.993056,14.0788923 L122.993056,17.5496615 L125.642704,17.5496615 L125.642704,19.7133538 L122.993056,19.7133538 L122.993056,23.8561231 C122.993056,24.2844308 123.059389,24.6019692 123.195741,24.8013538 C123.328407,25.0044308 123.545833,25.1078154 123.851704,25.1078154 C124.227593,25.1078154 124.636648,24.9896615 125.07887,24.7607385 L125.745889,26.8505846 C125.37737,27.0499692 125.005167,27.2050462 124.629278,27.3084308 C124.253389,27.4118154 123.766944,27.4635077 123.169944,27.4635077 C122.307611,27.4635077 121.625852,27.1902769 121.132037,26.6401231" id="Fill-12" fill="#FFFFFF" mask="url(#mask-2)"></path>
                    <path d="M130.273139,20.1209846 C129.88988,20.4163692 129.620861,20.8372923 129.469769,21.3911385 L133.763009,21.3911385 C133.626657,20.8557538 133.37975,20.4422154 133.022287,20.1357538 C132.664824,19.8366769 132.211546,19.6852923 131.658769,19.6852923 C131.120731,19.6852923 130.660083,19.8292923 130.273139,20.1209846 M136.279991,23.2742154 L129.462398,23.2742154 C129.617176,23.8502154 129.911991,24.3080615 130.350528,24.6403692 C130.789065,24.9652923 131.319731,25.1351385 131.942528,25.1425231 C132.88225,25.1499077 133.656139,24.7843692 134.26788,24.0422154 L135.95938,25.6225231 C135.520843,26.1837538 134.942269,26.6268308 134.231028,26.9628308 C133.516102,27.2951385 132.69062,27.4612923 131.758269,27.4612923 C130.811176,27.4612923 129.959898,27.2619077 129.197065,26.8446769 C128.437917,26.4348308 127.840917,25.8403692 127.40238,25.0686769 C126.967528,24.2932923 126.746417,23.4071385 126.746417,22.4139077 C126.746417,21.6865231 126.868028,21.0071385 127.114935,20.3794462 C127.361843,19.7517538 127.697194,19.2200615 128.124676,18.7806769 C128.548472,18.3449846 129.057028,18.0016 129.657713,17.7542154 C130.251028,17.5068308 130.89225,17.3849846 131.574009,17.3849846 C132.513731,17.3849846 133.346583,17.5954462 134.072565,18.0237538 C134.802231,18.4483692 135.36238,19.0354462 135.756694,19.7849846 C136.154694,20.5345231 136.350009,21.3874462 136.350009,22.3363692 C136.350009,22.7979077 136.327898,23.1117538 136.279991,23.2742154" id="Fill-13" fill="#FFFFFF" mask="url(#mask-2)"></path>
                    <polygon id="Fill-14" fill="#FFFFFF" mask="url(#mask-2)" points="142.681894 13.1115077 145.493691 13.1115077 145.493691 19.2555077 151.283117 19.2555077 151.283117 13.1115077 154.105969 13.1115077 154.105969 27.3010462 151.283117 27.3010462 151.283117 21.7588923 145.493691 21.7588923 145.493691 27.3010462 142.681894 27.3010462"></polygon>
                    <path d="M163.378631,24.3612308 C163.865076,23.8553846 164.108298,23.2129231 164.108298,22.4375385 C164.108298,21.64 163.868761,20.9938462 163.386002,20.488 C162.906928,19.9821538 162.302557,19.7347692 161.576576,19.7347692 C160.824798,19.7347692 160.216743,19.9858462 159.745039,20.4953846 C159.273335,21.0086154 159.037483,21.6547692 159.037483,22.4375385 C159.037483,23.1944615 159.27702,23.8295385 159.752409,24.3501538 C160.231483,24.8670769 160.839539,25.1218462 161.576576,25.1218462 C162.291502,25.1218462 162.892187,24.8707692 163.378631,24.3612308 M159.855594,27.2190769 C159.317557,27.0566154 158.838483,26.8276923 158.418372,26.5286154 C158.001946,26.2295385 157.640798,25.8750769 157.334928,25.4615385 C157.029057,25.0516923 156.796891,24.5864615 156.638428,24.0695385 C156.479965,23.5563077 156.398891,23.0135385 156.398891,22.4375385 C156.398891,21.7101538 156.527872,21.0418462 156.77478,20.4178462 C157.025372,19.7901538 157.375465,19.2584615 157.821372,18.8116923 C158.270965,18.3686154 158.816372,18.0141538 159.464965,17.7630769 C160.113557,17.512 160.817428,17.3827692 161.576576,17.3827692 C162.324669,17.3827692 163.017483,17.5083077 163.662391,17.7556923 C164.299928,17.9993846 164.852706,18.3427692 165.305983,18.7784615 C165.759261,19.2178462 166.113039,19.7532308 166.371002,20.3809231 C166.62528,21.0086154 166.757946,21.688 166.757946,22.4375385 C166.757946,23.416 166.53315,24.2873846 166.090928,25.0516923 C165.652391,25.8233846 165.04065,26.4178462 164.255706,26.8350769 C163.467076,27.256 162.575261,27.4627692 161.576576,27.4627692 C160.96852,27.4627692 160.393631,27.3815385 159.855594,27.2190769" id="Fill-15" fill="#FFFFFF" mask="url(#mask-2)"></path>
                    <path d="M183.085528,18.4262154 C183.686213,19.1203692 183.988398,20.1911385 183.988398,21.6348308 L183.988398,27.3062154 L181.379287,27.3062154 L181.379287,22.2662154 C181.379287,20.5751385 180.811769,19.7332923 179.676731,19.7332923 C179.304528,19.7332923 178.972861,19.8329846 178.674361,20.0360615 C178.375861,20.2354462 178.136324,20.5419077 177.959435,20.9591385 C177.778861,21.3689846 177.690417,21.8600615 177.690417,22.4212923 L177.690417,27.3062154 L175.081306,27.3062154 L175.081306,22.2662154 C175.081306,20.5751385 174.510102,19.7332923 173.360324,19.7332923 C172.962324,19.7332923 172.612231,19.8329846 172.310046,20.0360615 C172.004176,20.2354462 171.760954,20.5419077 171.576694,20.9591385 C171.399806,21.3689846 171.307676,21.8600615 171.307676,22.4212923 L171.307676,27.2988308 L168.698565,27.2988308 L168.698565,17.5511385 L171.307676,17.5511385 L171.307676,18.8323692 L171.337157,18.8323692 C171.720417,18.3671385 172.162639,18.0089846 172.667509,17.7542154 C173.176065,17.5068308 173.699361,17.3849846 174.244769,17.3849846 C175.600917,17.3849846 176.56275,17.9056 177.137639,18.9542154 L177.163435,18.9542154 C177.561435,18.4483692 178.04788,18.0569846 178.630139,17.7874462 C179.208713,17.5179077 179.849935,17.3849846 180.553806,17.3849846 C181.640935,17.3849846 182.484843,17.7320615 183.085528,18.4262154" id="Fill-16" fill="#FFFFFF" mask="url(#mask-2)"></path>
                    <path d="M189.354765,20.1209846 C188.971506,20.4163692 188.702487,20.8372923 188.551394,21.3911385 L192.844635,21.3911385 C192.708283,20.8557538 192.461376,20.4422154 192.103913,20.1357538 C191.74645,19.8366769 191.293172,19.6852923 190.740394,19.6852923 C190.202357,19.6852923 189.741709,19.8292923 189.354765,20.1209846 M195.365302,23.2742154 L188.544024,23.2742154 C188.698802,23.8502154 188.997302,24.3080615 189.432154,24.6403692 C189.870691,24.9652923 190.401357,25.1351385 191.024154,25.1425231 C191.963876,25.1499077 192.737765,24.7843692 193.349506,24.0422154 L195.044691,25.6225231 C194.602469,26.1837538 194.023894,26.6268308 193.312654,26.9628308 C192.597728,27.2951385 191.775931,27.4612923 190.839894,27.4612923 C189.892802,27.4612923 189.041524,27.2619077 188.278691,26.8446769 C187.519543,26.4348308 186.922543,25.8403692 186.484006,25.0686769 C186.049154,24.2932923 185.828043,23.4071385 185.828043,22.4139077 C185.828043,21.6865231 185.953339,21.0071385 186.196561,20.3794462 C186.443469,19.7517538 186.77882,19.2200615 187.206302,18.7806769 C187.630098,18.3449846 188.138654,18.0016 188.739339,17.7542154 C189.336339,17.5068308 189.973876,17.3849846 190.655635,17.3849846 C191.595357,17.3849846 192.428209,17.5954462 193.154191,18.0237538 C193.883857,18.4483692 194.444006,19.0354462 194.83832,19.7849846 C195.23632,20.5345231 195.431635,21.3874462 195.431635,22.3363692 C195.431635,22.7979077 195.409524,23.1117538 195.365302,23.2742154" id="Fill-17" fill="#FFFFFF" mask="url(#mask-2)"></path>
                    <polygon id="Fill-18" fill="#FFFFFF" mask="url(#mask-2)" points="3.48618519 42.3076923 8.41696296 42.3076923 8.41696296 9.58646154 3.48618519 9.58646154"></polygon>
                    <path d="M5.95194259,6.40110769 C5.41759074,6.40110769 4.98273889,5.96910769 4.98273889,5.43003077 C4.98273889,4.89833846 5.41759074,4.46633846 5.95194259,4.46633846 C6.48629444,4.46633846 6.91746111,4.89833846 6.91746111,5.43003077 C6.91746111,5.96910769 6.48629444,6.40110769 5.95194259,6.40110769 L5.95194259,6.40110769 Z M8.41733148,2.95987692 L8.41733148,0.0540307692 L3.4865537,0.0540307692 L3.4865537,2.95987692 L0.000368518519,2.95987692 L0.000368518519,7.90018462 L3.4865537,7.90018462 L8.41733148,7.90018462 L44.2926093,7.90018462 L44.2926093,2.95987692 L8.41733148,2.95987692 Z" id="Fill-19" fill="#FFFFFF" mask="url(#mask-2)"></path>
                    <polygon id="Fill-20" fill="#FFFFFF" mask="url(#mask-2)" points="26.3789241 25.36 41.0054241 14.7113846 41.0054241 13.0203077 34.8327389 13.0203077 34.8327389 9.64184615 33.1928315 9.64184615 33.1928315 13.0203077 19.5502759 13.0203077 19.5502759 9.64184615 17.9066833 9.64184615 17.9066833 13.0203077 11.7413685 13.0203077 11.7413685 14.704"></polygon>
                    <polygon id="Fill-21" fill="#FFFFFF" mask="url(#mask-2)" points="41.0061611 16.7458462 32.8729574 22.6683077 41.0061611 28.5427692"></polygon>
                    <polygon id="Fill-22" fill="#FFFFFF" mask="url(#mask-2)" points="19.8812056 22.6664615 11.7443167 16.744 11.7443167 28.5446154"></polygon>
                    <polygon id="Fill-23" fill="#FFFFFF" mask="url(#mask-2)" points="31.4729556 23.6870154 26.4353074 27.3534769 26.3837148 27.4014769 26.3800296 27.3977846 26.3726593 27.4014769 26.3210667 27.3534769 21.2797333 23.6870154 11.7424741 30.5731692 11.7424741 30.6174769 41.0065296 30.6174769 41.0065296 30.5731692"></polygon>
                </g>
            </g>
        </g>
    </g>
</svg>