<?xml version="1.0" encoding="UTF-8"?>
<svg width="40px" height="33px" viewBox="0 0 40 33" version="1.1" xmlns="http://www.w3.org/2000/svg" xmlns:xlink="http://www.w3.org/1999/xlink">
    <!-- Generator: Sketch 44.1 (41455) - http://www.bohemiancoding.com/sketch -->
    <title>Fill 1</title>
    <desc>Created with Sketch.</desc>
    <defs></defs>
    <g id="Page-1" stroke="none" stroke-width="1" fill="none" fill-rule="evenodd">
        <g id="Desktop-Copy-5" transform="translate(-699.000000, -1481.000000)" fill="#FFFFFF">
            <path d="M718.996994,1511.03745 C701.921102,1501.09134 701.199585,1493.0493 701.692621,1490.02762 C702.215721,1486.84037 704.692928,1484.41593 708.144182,1483.70634 C708.613168,1483.60582 709.070128,1483.56442 709.515063,1483.56442 C712.984356,1483.56442 715.894472,1486.17217 717.21124,1487.56179 L708.997977,1495.12486 L710.777717,1496.99936 L711.859992,1496.00002 L711.859992,1503.63996 L726.218172,1503.63996 L726.218172,1496.05915 L727.24032,1496.99936 L729.020061,1495.12486 L720.794772,1487.54996 C722.279894,1485.97704 725.791275,1482.86666 729.849805,1483.70634 C733.307072,1484.41593 735.784279,1486.84037 736.301366,1490.02762 C736.800415,1493.0493 736.072886,1501.09134 718.996994,1511.03745 L718.996994,1511.03745 Z M719.009019,1489.41856 L723.620712,1493.66428 L723.620712,1501.07952 L720.295724,1501.07952 L720.295724,1496.91658 L717.698264,1496.91658 L717.698264,1501.07952 L714.457452,1501.07952 L714.457452,1493.61106 L719.009019,1489.41856 Z M738.874775,1489.61961 C738.183322,1485.4271 734.85232,1482.11567 730.38493,1481.19912 C725.16596,1480.11699 720.890975,1483.70634 718.996994,1485.68729 C717.109025,1483.70634 712.882141,1480.11699 707.609057,1481.19912 C703.141667,1482.11567 699.810666,1485.4271 699.125225,1489.61961 C698.541999,1493.20305 699.239465,1502.71158 718.347629,1513.62155 L718.996994,1514 L719.652371,1513.62155 C738.760535,1502.71158 739.458001,1493.20305 738.874775,1489.61961 L738.874775,1489.61961 Z" id="Fill-1"></path>
        </g>
    </g>
</svg>