<?xml version="1.0" encoding="UTF-8"?>
<svg width="250px" height="250px" viewBox="0 0 250 250" version="1.1" xmlns="http://www.w3.org/2000/svg" xmlns:xlink="http://www.w3.org/1999/xlink">
    <!-- Generator: Sketch 44.1 (41455) - http://www.bohemiancoding.com/sketch -->
    <title>Artboard 4 Copy</title>
    <desc>Created with Sketch.</desc>
    <defs>
        <polygon id="path-1" points="159.597 165.9993 159.597 0.7263 0 0.7263 8.13151629e-20 165.9993"></polygon>
        <polygon id="path-3" points="0 166 159.597 166 159.597 0.726 0 0.726"></polygon>
    </defs>
    <g id="Page-1" stroke="none" stroke-width="1" fill="none" fill-rule="evenodd">
        <g id="Artboard-4-Copy">
            <g id="Page-1" transform="translate(45.000000, 42.000000)">
                <polygon id="Fill-1" fill="#29E59F" points="122.379 58.089 139.412 58.089 139.412 41.057 122.379 41.057"></polygon>
                <polygon id="Fill-2" fill="#29E59F" points="59.554 162.846 93.448 162.846 93.448 88.999 59.554 88.999"></polygon>
                <g id="Group-12" transform="translate(0.000000, 0.274000)">
                    <g id="Group-5">
                        <mask id="mask-2" fill="white">
                            <use xlink:href="#path-1"></use>
                        </mask>
                        <g id="Clip-4"></g>
                        <path d="M153.2886,85.8863 L96.3986,85.8863 L80.1146,85.8863 L73.0596,85.8863 L63.0816,85.8863 L63.0816,43.6213 C63.0816,31.9333 59.9456,23.5593 53.5886,18.3883 L128.0566,18.3883 C145.7426,18.3883 153.2886,25.9353 153.2886,43.6213 L153.2886,85.8863 Z M90.0916,159.6923 L80.1146,159.6923 L79.3676,159.6923 L79.3676,92.1953 L80.1146,92.1953 L90.0916,92.1953 L90.0916,159.6923 Z M63.0816,159.6923 L73.0596,159.6923 L73.0596,92.1953 L63.0816,92.1953 L63.0816,159.6923 Z M56.7736,85.8863 L34.6946,85.8863 L31.5416,85.8863 L28.3876,85.8863 L6.3086,85.8863 L6.3086,43.6213 C6.3086,27.0253 12.9536,19.3583 28.3876,18.4763 C29.3996,18.4173 30.4506,18.3883 31.5406,18.3883 L31.5416,18.3883 C32.6316,18.3883 33.6816,18.4173 34.6946,18.4763 C50.1276,19.3583 56.7736,27.0253 56.7736,43.6213 L56.7736,85.8863 Z M128.0566,12.0803 L34.6946,12.0803 L31.5406,12.0803 L28.3876,12.0803 L14.5096,12.0803 C9.9876,12.0803 6.3086,8.4023 6.3086,3.8803 L6.3086,0.7263 L-0.0004,0.7263 L-0.0004,3.8803 C-0.0004,10.4163 4.3476,15.9523 10.3006,17.7613 C3.4006,22.8693 -0.0004,31.4483 -0.0004,43.6213 L-0.0004,92.1953 L28.3876,92.1953 L56.7736,92.1953 L56.7736,165.9993 L73.0596,165.9993 L80.1146,165.9993 L96.3986,165.9993 L96.3986,92.1953 L159.5976,92.1953 L159.5976,43.6213 C159.5976,22.3973 149.2796,12.0803 128.0566,12.0803 L128.0566,12.0803 Z" id="Fill-3" fill="#333333" mask="url(#mask-2)"></path>
                    </g>
                    <polygon id="Fill-6" fill="#333333" points="31.5416 71.6929 28.3876 71.6929 11.3546 71.6929 11.3546 78.0019 28.3876 78.0019 31.5416 78.0019 34.6946 78.0019 51.7276 78.0019 51.7276 71.6929 34.6946 71.6929"></polygon>
                    <polygon id="Fill-8" fill="#333333" points="31.5416 60.3384 28.3876 60.3384 11.3546 60.3384 11.3546 66.6464 28.3876 66.6464 31.5416 66.6464 34.6946 66.6464 51.7276 66.6464 51.7276 60.3384 34.6946 60.3384"></polygon>
                    <mask id="mask-4" fill="white">
                        <use xlink:href="#path-3"></use>
                    </mask>
                    <g id="Clip-11"></g>
                    <path d="M125.532,54.661 L136.257,54.661 L136.257,43.937 L125.532,43.937 L125.532,54.661 Z M119.225,37.628 L79.798,37.628 L79.798,43.937 L119.225,43.937 L119.225,60.968 L142.565,60.968 L142.565,37.628 L139.412,37.628 L119.225,37.628 Z" id="Fill-10" fill="#333333" mask="url(#mask-4)"></path>
                </g>
            </g>
        </g>
    </g>
</svg>