<?xml version="1.0" encoding="UTF-8"?>
<svg width="253px" height="114px" viewBox="0 0 253 114" version="1.1" xmlns="http://www.w3.org/2000/svg" xmlns:xlink="http://www.w3.org/1999/xlink">
    <!-- Generator: Sketch 46.2 (44496) - http://www.bohemiancoding.com/sketch -->
    <title>Page 1 Copy 6</title>
    <desc>Created with Sketch.</desc>
    <defs>
        <polygon id="path-1" points="0 113.711006 252.987026 113.711006 252.987026 0 0 0"></polygon>
    </defs>
    <g id="Page-1" stroke="none" stroke-width="1" fill="none" fill-rule="evenodd">
        <g id="cities-home-lg" transform="translate(-63.000000, -406.000000)">
            <g id="Page-1-Copy-6" transform="translate(63.000000, 406.000000)">
                <path d="M99.6844507,24.1223274 C102.318246,25.1635758 104.390539,27.2504293 105.423442,29.9036522 C106.457066,27.2504293 108.528639,25.1635758 111.162434,24.1223274 C108.528639,23.081079 106.457066,20.9942255 105.423442,18.3410025 C104.390539,20.9942255 102.318246,23.081079 99.6844507,24.1223274 L99.6844507,24.1223274 Z M105.423442,34.5188369 C105.025562,34.5188369 104.702644,34.1942637 104.702644,33.7927223 C104.702644,28.7774484 100.802408,24.848442 95.8231373,24.848442 C95.425257,24.848442 95.1023396,24.5238688 95.1023396,24.1223274 C95.1023396,23.720786 95.425257,23.3962127 95.8231373,23.3962127 C100.802408,23.3962127 104.702644,19.4672064 104.702644,14.4512064 C104.702644,14.049665 105.025562,13.7250917 105.423442,13.7250917 C105.822043,13.7250917 106.14424,14.049665 106.14424,14.4512064 C106.14424,19.4672064 110.045197,23.3962127 115.023747,23.3962127 C115.421627,23.3962127 115.744545,23.720786 115.744545,24.1223274 C115.744545,24.5238688 115.421627,24.848442 115.023747,24.848442 C110.045197,24.848442 106.14424,28.7774484 106.14424,33.7927223 C106.14424,34.1942637 105.822043,34.5188369 105.423442,34.5188369 L105.423442,34.5188369 Z" id="Fill-1" fill="#414141"></path>
                <path d="M144.78426,107.399327 C141.146393,107.399327 138.093094,105.269633 136.758177,102.153875 C135.42398,105.269633 132.36996,107.399327 128.732094,107.399327 C128.334214,107.399327 128.011297,107.074754 128.011297,106.673213 C128.011297,106.271671 128.334214,105.947098 128.732094,105.947098 C132.828388,105.947098 136.037379,102.715162 136.037379,98.5886522 C136.037379,98.1871108 136.359576,97.8625376 136.758177,97.8625376 C137.156778,97.8625376 137.478975,98.1871108 137.478975,98.5886522 C137.478975,102.715162 140.687966,105.947098 144.78426,105.947098 C145.182861,105.947098 145.505057,106.271671 145.505057,106.673213 C145.505057,107.074754 145.182861,107.399327 144.78426,107.399327" id="Fill-3" fill="#FEFEFE"></path>
                <path d="M182.162955,107.399327 C178.525089,107.399327 175.472511,105.269633 174.137593,102.153875 C172.803397,105.269633 169.749377,107.399327 166.111511,107.399327 C165.71363,107.399327 165.390713,107.074754 165.390713,106.673213 C165.390713,106.271671 165.71363,105.947098 166.111511,105.947098 C170.207804,105.947098 173.416796,102.715162 173.416796,98.5886522 C173.416796,98.1871108 173.738992,97.8625376 174.137593,97.8625376 C174.536195,97.8625376 174.858391,98.1871108 174.858391,98.5886522 C174.858391,102.715162 178.066662,105.947098 182.162955,105.947098 C182.561556,105.947098 182.883753,106.271671 182.883753,106.673213 C182.883753,107.074754 182.561556,107.399327 182.162955,107.399327" id="Fill-5" fill="#FEFEFE"></path>
                <path d="M163.520748,107.399327 C159.882881,107.399327 156.830303,105.269633 155.495386,102.153875 C154.161189,105.269633 151.107169,107.399327 147.469303,107.399327 C147.071423,107.399327 146.748505,107.074754 146.748505,106.673213 C146.748505,106.271671 147.071423,105.947098 147.469303,105.947098 C151.565597,105.947098 154.774588,102.715162 154.774588,98.5886522 C154.774588,98.1871108 155.096785,97.8625376 155.495386,97.8625376 C155.893987,97.8625376 156.216183,98.1871108 156.216183,98.5886522 C156.216183,102.715162 159.424454,105.947098 163.520748,105.947098 C163.919349,105.947098 164.241545,106.271671 164.241545,106.673213 C164.241545,107.074754 163.919349,107.399327 163.520748,107.399327" id="Fill-7" fill="#FEFEFE"></path>
                <path d="M214.886739,107.399327 C211.248873,107.399327 208.195574,105.269633 206.860657,102.153875 C205.52646,105.269633 202.47244,107.399327 198.834574,107.399327 C198.436694,107.399327 198.113776,107.074754 198.113776,106.673213 C198.113776,106.271671 198.436694,105.947098 198.834574,105.947098 C202.930868,105.947098 206.139859,102.715162 206.139859,98.5886522 C206.139859,98.1871108 206.462056,97.8625376 206.860657,97.8625376 C207.259258,97.8625376 207.581454,98.1871108 207.581454,98.5886522 C207.581454,102.715162 210.790446,105.947098 214.886739,105.947098 C215.28534,105.947098 215.607537,106.271671 215.607537,106.673213 C215.607537,107.074754 215.28534,107.399327 214.886739,107.399327" id="Fill-9" fill="#FEFEFE"></path>
                <path d="M252.266156,107.399327 C248.62829,107.399327 245.574991,105.269633 244.240073,102.153875 C242.905877,105.269633 239.851857,107.399327 236.213991,107.399327 C235.81611,107.399327 235.493193,107.074754 235.493193,106.673213 C235.493193,106.271671 235.81611,105.947098 236.213991,105.947098 C240.310284,105.947098 243.519275,102.715162 243.519275,98.5886522 C243.519275,98.1871108 243.841472,97.8625376 244.240073,97.8625376 C244.638674,97.8625376 244.960871,98.1871108 244.960871,98.5886522 C244.960871,102.715162 248.169862,105.947098 252.266156,105.947098 C252.664757,105.947098 252.986954,106.271671 252.986954,106.673213 C252.986954,107.074754 252.664757,107.399327 252.266156,107.399327" id="Fill-11" fill="#FEFEFE"></path>
                <path d="M233.623299,107.399327 C229.985433,107.399327 226.932855,105.269633 225.597938,102.153875 C224.263741,105.269633 221.209721,107.399327 217.571855,107.399327 C217.173975,107.399327 216.851057,107.074754 216.851057,106.673213 C216.851057,106.271671 217.173975,105.947098 217.571855,105.947098 C221.668148,105.947098 224.87714,102.715162 224.87714,98.5886522 C224.87714,98.1871108 225.199336,97.8625376 225.597938,97.8625376 C225.996539,97.8625376 226.318735,98.1871108 226.318735,98.5886522 C226.318735,102.715162 229.527006,105.947098 233.623299,105.947098 C234.021901,105.947098 234.344097,106.271671 234.344097,106.673213 C234.344097,107.074754 234.021901,107.399327 233.623299,107.399327" id="Fill-13" fill="#FEFEFE"></path>
                <path d="M225.16308,41.3838879 C226.482861,42.0446522 227.548921,43.1185758 228.204847,44.4480917 C228.860773,43.1185758 229.926112,42.0446522 231.245892,41.3838879 C229.926112,40.7231236 228.860773,39.6492 228.204847,38.3196841 C227.548921,39.6492 226.482861,40.7231236 225.16308,41.3838879 M228.204847,48.3124739 C227.806246,48.3124739 227.484049,47.9879006 227.484049,47.5863592 C227.484049,44.5148943 225.096046,42.1100025 222.048513,42.1100025 C221.649912,42.1100025 221.327716,41.7854293 221.327716,41.3838879 C221.327716,40.9823465 221.649912,40.6577732 222.048513,40.6577732 C225.096046,40.6577732 227.484049,38.2528815 227.484049,35.1821427 C227.484049,34.7806013 227.806246,34.456028 228.204847,34.456028 C228.602727,34.456028 228.925644,34.7806013 228.925644,35.1821427 C228.925644,38.2528815 231.312926,40.6577732 234.361901,40.6577732 C234.759781,40.6577732 235.082699,40.9823465 235.082699,41.3838879 C235.082699,41.7854293 234.759781,42.1100025 234.361901,42.1100025 C231.312926,42.1100025 228.925644,44.5148943 228.925644,47.5863592 C228.925644,47.9879006 228.602727,48.3124739 228.204847,48.3124739" id="Fill-15" fill="#FEFEFE"></path>
                <path d="M249.611746,72.7975682 L127.95839,72.7975682 C127.559789,72.7975682 127.237592,72.4729949 127.237592,72.0714535 C127.237592,71.6699121 127.559789,71.3453389 127.95839,71.3453389 L249.611746,71.3453389 C250.010347,71.3453389 250.332544,71.6699121 250.332544,72.0714535 C250.332544,72.4729949 250.010347,72.7975682 249.611746,72.7975682" id="Fill-17" fill="#414141"></path>
                <path d="M241.260656,78.7036395 L127.958462,78.7036395 C127.559861,78.7036395 127.237664,78.3790662 127.237664,77.9775248 C127.237664,77.5759834 127.559861,77.2514102 127.958462,77.2514102 L241.260656,77.2514102 C241.659257,77.2514102 241.981454,77.5759834 241.981454,77.9775248 C241.981454,78.3790662 241.659257,78.7036395 241.260656,78.7036395" id="Fill-19" fill="#414141"></path>
                <path d="M190.092451,90.4583465 C189.69385,90.4583465 189.371653,90.1337732 189.371653,89.7322318 L189.371653,21.6016204 C189.371653,21.2465503 189.626816,20.9430344 189.975682,20.8856713 C190.321665,20.8210471 190.662602,21.0323465 190.775046,21.3692637 C203.668676,59.8308306 233.739636,71.278028 234.04165,71.3891236 C234.415024,71.5270854 234.608197,71.9438752 234.471246,72.3207287 C234.335015,72.6968561 233.920556,72.8900025 233.547183,72.753493 C233.248773,72.6438497 204.58481,61.7325248 190.813249,25.747735 L190.813249,89.7322318 C190.813249,90.1337732 190.491052,90.4583465 190.092451,90.4583465" id="Fill-21" fill="#414141"></path>
                <mask id="mask-2" fill="white">
                    <use xlink:href="#path-1"></use>
                </mask>
                <g id="Clip-24"></g>
                <path d="M186.342789,112.258777 L194.139658,112.258777 L194.139658,85.6176306 L186.342789,85.6176306 L186.342789,112.258777 Z M194.860456,113.711006 L185.621991,113.711006 C185.22339,113.711006 184.901194,113.386433 184.901194,112.984892 L184.901194,84.8915159 C184.901194,84.4899745 185.22339,84.1654013 185.621991,84.1654013 L194.860456,84.1654013 C195.259057,84.1654013 195.581254,84.4899745 195.581254,84.8915159 L195.581254,112.984892 C195.581254,113.386433 195.259057,113.711006 194.860456,113.711006 L194.860456,113.711006 Z" id="Fill-23" fill="#414141" mask="url(#mask-2)"></path>
                <path d="M129.034397,66.0115185 C128.62138,66.0115185 128.529118,66.0071618 128.344593,65.9991745 L127.924368,65.9839261 C127.526488,65.9708561 127.213662,65.6361172 127.225195,65.236028 C127.237448,64.8424739 127.557482,64.5316968 127.945272,64.5316968 L127.968337,64.5316968 L128.408024,64.5483975 C128.575249,64.5556586 128.658861,64.5592892 129.034397,64.5592892 C169.674414,64.5592892 189.24191,21.7359516 189.435083,21.3039134 C189.597263,20.9386777 190.023254,20.776028 190.387978,20.9394038 C190.75126,21.1035057 190.91344,21.5333656 190.749819,21.8993274 C190.700804,22.0089707 185.715046,33.0546268 175.682984,43.9376331 C166.39983,54.0081172 150.770773,66.0115185 129.034397,66.0115185" id="Fill-25" fill="#414141" mask="url(#mask-2)"></path>
                <path d="M221.189539,75.7509669 C220.790938,75.7509669 220.468741,75.4263936 220.468741,75.0248522 L220.468741,68.4382662 C220.468741,68.0367248 220.790938,67.7121516 221.189539,67.7121516 C221.58814,67.7121516 221.910336,68.0367248 221.910336,68.4382662 L221.910336,75.0248522 C221.910336,75.4263936 221.58814,75.7509669 221.189539,75.7509669" id="Fill-26" fill="#414141" mask="url(#mask-2)"></path>
                <path d="M215.923607,75.7509669 C215.525006,75.7509669 215.202809,75.4263936 215.202809,75.0248522 L215.202809,68.4382662 C215.202809,68.0367248 215.525006,67.7121516 215.923607,67.7121516 C216.322208,67.7121516 216.644405,68.0367248 216.644405,68.4382662 L216.644405,75.0248522 C216.644405,75.4263936 216.322208,75.7509669 215.923607,75.7509669" id="Fill-27" fill="#414141" mask="url(#mask-2)"></path>
                <path d="M194.860672,75.7509669 C194.462071,75.7509669 194.139874,75.4263936 194.139874,75.0248522 L194.139874,46.6526484 C194.139874,46.251107 194.462071,45.9265338 194.860672,45.9265338 C195.259273,45.9265338 195.58147,46.251107 195.58147,46.6526484 L195.58147,75.0248522 C195.58147,75.4263936 195.259273,75.7509669 194.860672,75.7509669" id="Fill-28" fill="#414141" mask="url(#mask-2)"></path>
                <path d="M200.126604,75.7509669 C199.728003,75.7509669 199.405806,75.4263936 199.405806,75.0248522 L199.405806,58.0802408 C199.405806,57.6786994 199.728003,57.3541261 200.126604,57.3541261 C200.525205,57.3541261 200.847402,57.6786994 200.847402,58.0802408 L200.847402,75.0248522 C200.847402,75.4263936 200.525205,75.7509669 200.126604,75.7509669" id="Fill-29" fill="#414141" mask="url(#mask-2)"></path>
                <path d="M205.392536,75.7509669 C204.993935,75.7509669 204.671738,75.4263936 204.671738,75.0248522 L204.671738,63.7657185 C204.671738,63.3641771 204.993935,63.0396038 205.392536,63.0396038 C205.791137,63.0396038 206.113334,63.3641771 206.113334,63.7657185 L206.113334,75.0248522 C206.113334,75.4263936 205.791137,75.7509669 205.392536,75.7509669" id="Fill-30" fill="#414141" mask="url(#mask-2)"></path>
                <path d="M210.657675,75.7509669 C210.259074,75.7509669 209.936877,75.4263936 209.936877,75.0248522 L209.936877,65.2854764 C209.936877,64.883935 210.259074,64.5593618 210.657675,64.5593618 C211.056276,64.5593618 211.378473,64.883935 211.378473,65.2854764 L211.378473,75.0248522 C211.378473,75.4263936 211.056276,75.7509669 210.657675,75.7509669" id="Fill-31" fill="#414141" mask="url(#mask-2)"></path>
                <path d="M184.692811,74.7936573 C184.29421,74.7936573 183.972013,74.4690841 183.972013,74.0675427 L183.972013,40.065772 C183.972013,39.6642306 184.29421,39.3396573 184.692811,39.3396573 C185.091412,39.3396573 185.413609,39.6642306 185.413609,40.065772 L185.413609,74.0675427 C185.413609,74.4690841 185.091412,74.7936573 184.692811,74.7936573" id="Fill-32" fill="#414141" mask="url(#mask-2)"></path>
                <path d="M178.991157,74.7936573 C178.592556,74.7936573 178.270359,74.4690841 178.270359,74.0675427 L178.270359,50.1987019 C178.270359,49.7971605 178.592556,49.4725873 178.991157,49.4725873 C179.389758,49.4725873 179.711955,49.7971605 179.711955,50.1987019 L179.711955,74.0675427 C179.711955,74.4690841 179.389758,74.7936573 178.991157,74.7936573" id="Fill-33" fill="#414141" mask="url(#mask-2)"></path>
                <path d="M173.289575,74.7936573 C172.890974,74.7936573 172.568777,74.4690841 172.568777,74.0675427 L172.568777,55.6663452 C172.568777,55.2648038 172.890974,54.9402306 173.289575,54.9402306 C173.688176,54.9402306 174.010373,55.2648038 174.010373,55.6663452 L174.010373,74.0675427 C174.010373,74.4690841 173.688176,74.7936573 173.289575,74.7936573" id="Fill-34" fill="#414141" mask="url(#mask-2)"></path>
                <path d="M167.587921,74.7936573 C167.18932,74.7936573 166.867123,74.4690841 166.867123,74.0675427 L166.867123,58.0799503 C166.867123,57.679135 167.18932,57.3538357 167.587921,57.3538357 C167.986522,57.3538357 168.308719,57.679135 168.308719,58.0799503 L168.308719,74.0675427 C168.308719,74.4690841 167.986522,74.7936573 167.587921,74.7936573" id="Fill-35" fill="#414141" mask="url(#mask-2)"></path>
                <path d="M161.886339,74.7936573 C161.487738,74.7936573 161.165541,74.4690841 161.165541,74.0675427 L161.165541,62.1331223 C161.165541,61.732307 161.487738,61.4070076 161.886339,61.4070076 C162.28494,61.4070076 162.607136,61.732307 162.607136,62.1331223 L162.607136,74.0675427 C162.607136,74.4690841 162.28494,74.7936573 161.886339,74.7936573" id="Fill-36" fill="#414141" mask="url(#mask-2)"></path>
                <path d="M156.184685,74.7936573 C155.786083,74.7936573 155.463887,74.4690841 155.463887,74.0675427 L155.463887,65.285186 C155.463887,64.8843707 155.786083,64.5590713 156.184685,64.5590713 C156.583286,64.5590713 156.905482,64.8843707 156.905482,65.285186 L156.905482,74.0675427 C156.905482,74.4690841 156.583286,74.7936573 156.184685,74.7936573" id="Fill-37" fill="#414141" mask="url(#mask-2)"></path>
                <path d="M150.48303,74.7936573 C150.084429,74.7936573 149.762233,74.4690841 149.762233,74.0675427 L149.762233,68.4379758 C149.762233,68.0364344 150.084429,67.7118611 150.48303,67.7118611 C150.881632,67.7118611 151.203828,68.0364344 151.203828,68.4379758 L151.203828,74.0675427 C151.203828,74.4690841 150.881632,74.7936573 150.48303,74.7936573" id="Fill-38" fill="#414141" mask="url(#mask-2)"></path>
                <path d="M144.781448,74.7936573 C144.382847,74.7936573 144.060651,74.4690841 144.060651,74.0675427 L144.060651,68.4379758 C144.060651,68.0364344 144.382847,67.7118611 144.781448,67.7118611 C145.18005,67.7118611 145.502246,68.0364344 145.502246,68.4379758 L145.502246,74.0675427 C145.502246,74.4690841 145.18005,74.7936573 144.781448,74.7936573" id="Fill-39" fill="#414141" mask="url(#mask-2)"></path>
                <path d="M139.079794,74.7936573 C138.681193,74.7936573 138.358997,74.4690841 138.358997,74.0675427 L138.358997,68.4379758 C138.358997,68.0364344 138.681193,67.7118611 139.079794,67.7118611 C139.478395,67.7118611 139.800592,68.0364344 139.800592,68.4379758 L139.800592,74.0675427 C139.800592,74.4690841 139.478395,74.7936573 139.079794,74.7936573" id="Fill-40" fill="#414141" mask="url(#mask-2)"></path>
                <path d="M133.378212,74.7936573 C132.979611,74.7936573 132.657415,74.4690841 132.657415,74.0675427 L132.657415,68.4379758 C132.657415,68.0364344 132.979611,67.7118611 133.378212,67.7118611 C133.776813,67.7118611 134.09901,68.0364344 134.09901,68.4379758 L134.09901,74.0675427 C134.09901,74.4690841 133.776813,74.7936573 133.378212,74.7936573" id="Fill-41" fill="#414141" mask="url(#mask-2)"></path>
                <path d="M124.254211,107.399327 C120.616344,107.399327 117.563045,105.269633 116.228849,102.153875 C114.894652,105.269633 111.840632,107.399327 108.202766,107.399327 C107.804886,107.399327 107.481968,107.074754 107.481968,106.673213 C107.481968,106.271671 107.804886,105.947098 108.202766,105.947098 C112.29906,105.947098 115.508051,102.715162 115.508051,98.5886522 C115.508051,98.1871108 115.830248,97.8625376 116.228849,97.8625376 C116.626729,97.8625376 116.949646,98.1871108 116.949646,98.5886522 C116.949646,102.715162 120.157917,105.947098 124.254211,105.947098 C124.652091,105.947098 124.975008,106.271671 124.975008,106.673213 C124.975008,107.074754 124.652091,107.399327 124.254211,107.399327" id="Fill-42" fill="#414141" mask="url(#mask-2)"></path>
                <path d="M86.874794,107.399327 C83.2369279,107.399327 80.1836288,105.269633 78.8494322,102.153875 C77.5152356,105.269633 74.4612157,107.399327 70.8233496,107.399327 C70.4254692,107.399327 70.1025519,107.074754 70.1025519,106.673213 C70.1025519,106.271671 70.4254692,105.947098 70.8233496,105.947098 C74.919643,105.947098 78.1286345,102.715162 78.1286345,98.5886522 C78.1286345,98.1871108 78.4508311,97.8625376 78.8494322,97.8625376 C79.2473125,97.8625376 79.5702299,98.1871108 79.5702299,98.5886522 C79.5702299,102.715162 82.7785006,105.947098 86.874794,105.947098 C87.2726744,105.947098 87.5955917,106.271671 87.5955917,106.673213 C87.5955917,107.074754 87.2726744,107.399327 86.874794,107.399327" id="Fill-43" fill="#414141" mask="url(#mask-2)"></path>
                <path d="M105.517002,107.399327 C101.879136,107.399327 98.8258365,105.269633 97.4916399,102.153875 C96.1574433,105.269633 93.1034234,107.399327 89.4655573,107.399327 C89.0676769,107.399327 88.7447595,107.074754 88.7447595,106.673213 C88.7447595,106.271671 89.0676769,105.947098 89.4655573,105.947098 C93.5618507,105.947098 96.7708422,102.715162 96.7708422,98.5886522 C96.7708422,98.1871108 97.0930387,97.8625376 97.4916399,97.8625376 C97.8895202,97.8625376 98.2124376,98.1871108 98.2124376,98.5886522 C98.2124376,102.715162 101.420708,105.947098 105.517002,105.947098 C105.914882,105.947098 106.237799,106.271671 106.237799,106.673213 C106.237799,107.074754 105.914882,107.399327 105.517002,107.399327" id="Fill-44" fill="#414141" mask="url(#mask-2)"></path>
                <path d="M54.1516587,107.399327 C50.5137926,107.399327 47.4597726,105.269633 46.1255761,102.153875 C44.7913795,105.269633 41.7380803,107.399327 38.1002142,107.399327 C37.7023339,107.399327 37.3794165,107.074754 37.3794165,106.673213 C37.3794165,106.271671 37.7023339,105.947098 38.1002142,105.947098 C42.1965077,105.947098 45.4047783,102.715162 45.4047783,98.5886522 C45.4047783,98.1871108 45.7276957,97.8625376 46.1255761,97.8625376 C46.5234564,97.8625376 46.8463738,98.1871108 46.8463738,98.5886522 C46.8463738,102.715162 50.0553652,105.947098 54.1516587,105.947098 C54.549539,105.947098 54.8724564,106.271671 54.8724564,106.673213 C54.8724564,107.074754 54.549539,107.399327 54.1516587,107.399327" id="Fill-45" fill="#414141" mask="url(#mask-2)"></path>
                <path d="M16.7722422,107.399327 C13.1343761,107.399327 10.0810769,105.269633 8.74688034,102.153875 C7.41268376,105.269633 4.35866382,107.399327 0.720797721,107.399327 C0.322917379,107.399327 0,107.074754 0,106.673213 C0,106.271671 0.322917379,105.947098 0.720797721,105.947098 C4.81709117,105.947098 8.02608262,102.715162 8.02608262,98.5886522 C8.02608262,98.1871108 8.3482792,97.8625376 8.74688034,97.8625376 C9.14476068,97.8625376 9.46767806,98.1871108 9.46767806,98.5886522 C9.46767806,102.715162 12.6759487,105.947098 16.7722422,105.947098 C17.1701225,105.947098 17.4930399,106.271671 17.4930399,106.673213 C17.4930399,107.074754 17.1701225,107.399327 16.7722422,107.399327" id="Fill-46" fill="#414141" mask="url(#mask-2)"></path>
                <path d="M35.4144499,107.399327 C31.7765838,107.399327 28.7232846,105.269633 27.389088,102.153875 C26.0548915,105.269633 23.0008715,107.399327 19.3630054,107.399327 C18.9651251,107.399327 18.6422077,107.074754 18.6422077,106.673213 C18.6422077,106.271671 18.9651251,105.947098 19.3630054,105.947098 C23.4592989,105.947098 26.6682903,102.715162 26.6682903,98.5886522 C26.6682903,98.1871108 26.9904869,97.8625376 27.389088,97.8625376 C27.7869684,97.8625376 28.1098858,98.1871108 28.1098858,98.5886522 C28.1098858,102.715162 31.3181564,105.947098 35.4144499,105.947098 C35.8123302,105.947098 36.1352476,106.271671 36.1352476,106.673213 C36.1352476,107.074754 35.8123302,107.399327 35.4144499,107.399327" id="Fill-47" fill="#414141" mask="url(#mask-2)"></path>
                <path d="M21.7404125,41.3838879 C23.0601932,42.0446522 24.126253,43.1185758 24.7814581,44.4480917 C25.437384,43.1185758 26.5034439,42.0446522 27.8232245,41.3838879 C26.5034439,40.7231236 25.437384,39.6492 24.7814581,38.3196841 C24.126253,39.6492 23.0601932,40.7231236 21.7404125,41.3838879 M24.7814581,48.3124739 C24.3835778,48.3124739 24.0606604,47.9879006 24.0606604,47.5863592 C24.0606604,44.5148943 21.6733783,42.1100025 18.6251248,42.1100025 C18.2272444,42.1100025 17.9043271,41.7854293 17.9043271,41.3838879 C17.9043271,40.9823465 18.2272444,40.6577732 18.6251248,40.6577732 C21.6733783,40.6577732 24.0606604,38.2528815 24.0606604,35.1821427 C24.0606604,34.7806013 24.3835778,34.456028 24.7814581,34.456028 C25.1793385,34.456028 25.5022558,34.7806013 25.5022558,35.1821427 C25.5022558,38.2528815 27.8902587,40.6577732 30.9385123,40.6577732 C31.3363926,40.6577732 31.65931,40.9823465 31.65931,41.3838879 C31.65931,41.7854293 31.3363926,42.1100025 30.9385123,42.1100025 C27.8902587,42.1100025 25.5022558,44.5148943 25.5022558,47.5863592 C25.5022558,47.9879006 25.1793385,48.3124739 24.7814581,48.3124739" id="Fill-48" fill="#414141" mask="url(#mask-2)"></path>
                <path d="M125.028491,72.7975682 L3.37513533,72.7975682 C2.97725499,72.7975682 2.65433761,72.4729949 2.65433761,72.0714535 C2.65433761,71.6699121 2.97725499,71.3453389 3.37513533,71.3453389 L125.028491,71.3453389 C125.426372,71.3453389 125.749289,71.6699121 125.749289,72.0714535 C125.749289,72.4729949 125.426372,72.7975682 125.028491,72.7975682" id="Fill-49" fill="#FEFEFE" mask="url(#mask-2)"></path>
                <path d="M125.028491,78.7036395 L11.7262977,78.7036395 C11.3276966,78.7036395 11.0055,78.3790662 11.0055,77.9775248 C11.0055,77.5759834 11.3276966,77.2514102 11.7262977,77.2514102 L125.028491,77.2514102 C125.426372,77.2514102 125.749289,77.5759834 125.749289,77.9775248 C125.749289,78.3790662 125.426372,78.7036395 125.028491,78.7036395" id="Fill-50" fill="#FEFEFE" mask="url(#mask-2)"></path>
                <path d="M62.8941422,90.4583465 C62.4962618,90.4583465 62.1733444,90.1337732 62.1733444,89.7322318 L62.1733444,25.7470089 C55.2205296,43.9100408 44.5512818,55.4777732 36.5698886,62.1108306 C27.2997091,69.8141809 19.756561,72.6373146 19.43941,72.753493 C19.0674783,72.8907287 18.6522989,72.6975822 18.5160681,72.3207287 C18.3791165,71.9438752 18.5715695,71.5278115 18.9449427,71.3891236 C19.2476778,71.278028 49.3301707,59.7959771 62.2115467,21.3692637 C62.3239912,21.0330726 62.6598829,20.8232255 63.0109114,20.8856713 C63.3597775,20.9430344 63.6149399,21.2465503 63.6149399,21.6016204 L63.6149399,89.7322318 C63.6149399,90.1337732 63.2920225,90.4583465 62.8941422,90.4583465" id="Fill-51" fill="#FEFEFE" mask="url(#mask-2)"></path>
                <path d="M58.8466467,112.258777 L66.6442365,112.258777 L66.6442365,85.6176306 L58.8466467,85.6176306 L58.8466467,112.258777 Z M67.3643134,113.711006 L58.125849,113.711006 C57.7272479,113.711006 57.4050513,113.386433 57.4050513,112.984892 L57.4050513,84.8915159 C57.4050513,84.4899745 57.7272479,84.1654013 58.125849,84.1654013 L67.3643134,84.1654013 C67.7629145,84.1654013 68.0851111,84.4899745 68.0851111,84.8915159 L68.0851111,112.984892 C68.0851111,113.386433 67.7629145,113.711006 67.3643134,113.711006 L67.3643134,113.711006 Z" id="Fill-52" fill="#FEFEFE" mask="url(#mask-2)"></path>
                <path d="M123.952196,66.0115185 C102.21582,66.0115185 86.5867632,54.0081172 77.3043302,43.9376331 C67.2715467,33.0546268 62.2857889,22.0089707 62.2367746,21.8993274 C62.0731536,21.5333656 62.235333,21.1035057 62.5986151,20.9394038 C62.9611764,20.7753019 63.3886094,20.9386777 63.5515097,21.3039134 C63.7446835,21.7359516 83.3330823,64.5592892 123.952196,64.5592892 C124.327732,64.5592892 124.411344,64.5556586 124.57929,64.5483975 L125.018256,64.5316968 C125.398837,64.5360535 125.748424,64.8352127 125.760678,65.236028 C125.772211,65.6361172 125.460105,65.9708561 125.062225,65.9839261 L124.642,65.9991745 C124.457475,66.0071618 124.365213,66.0115185 123.952196,66.0115185" id="Fill-53" fill="#FEFEFE" mask="url(#mask-2)"></path>
                <path d="M31.7974869,75.7509669 C31.3996066,75.7509669 31.0766892,75.4263936 31.0766892,75.0248522 L31.0766892,68.4382662 C31.0766892,68.0367248 31.3996066,67.7121516 31.7974869,67.7121516 C32.1953672,67.7121516 32.5182846,68.0367248 32.5182846,68.4382662 L32.5182846,75.0248522 C32.5182846,75.4263936 32.1953672,75.7509669 31.7974869,75.7509669" id="Fill-54" fill="#FEFEFE" mask="url(#mask-2)"></path>
                <path d="M37.0629863,75.7509669 C36.665106,75.7509669 36.3421886,75.4263936 36.3421886,75.0248522 L36.3421886,68.4382662 C36.3421886,68.0367248 36.665106,67.7121516 37.0629863,67.7121516 C37.4608667,67.7121516 37.783784,68.0367248 37.783784,68.4382662 L37.783784,75.0248522 C37.783784,75.4263936 37.4608667,75.7509669 37.0629863,75.7509669" id="Fill-55" fill="#FEFEFE" mask="url(#mask-2)"></path>
                <path d="M58.1255607,75.7509669 C57.7276803,75.7509669 57.404763,75.4263936 57.404763,75.0248522 L57.404763,46.6526484 C57.404763,46.251107 57.7276803,45.9265338 58.1255607,45.9265338 C58.523441,45.9265338 58.8463584,46.251107 58.8463584,46.6526484 L58.8463584,75.0248522 C58.8463584,75.4263936 58.523441,75.7509669 58.1255607,75.7509669" id="Fill-56" fill="#FEFEFE" mask="url(#mask-2)"></path>
                <path d="M52.8599892,75.7509669 C52.4621088,75.7509669 52.1391915,75.4263936 52.1391915,75.0248522 L52.1391915,58.0802408 C52.1391915,57.6786994 52.4621088,57.3541261 52.8599892,57.3541261 C53.2578695,57.3541261 53.5807869,57.6786994 53.5807869,58.0802408 L53.5807869,75.0248522 C53.5807869,75.4263936 53.2578695,75.7509669 52.8599892,75.7509669" id="Fill-57" fill="#FEFEFE" mask="url(#mask-2)"></path>
                <path d="M47.5944897,75.7509669 C47.1966094,75.7509669 46.873692,75.4263936 46.873692,75.0248522 L46.873692,63.7657185 C46.873692,63.3641771 47.1966094,63.0396038 47.5944897,63.0396038 C47.9923701,63.0396038 48.3152875,63.3641771 48.3152875,63.7657185 L48.3152875,75.0248522 C48.3152875,75.4263936 47.9923701,75.7509669 47.5944897,75.7509669" id="Fill-58" fill="#FEFEFE" mask="url(#mask-2)"></path>
                <path d="M42.3285578,75.7509669 C41.9306775,75.7509669 41.6077601,75.4263936 41.6077601,75.0248522 L41.6077601,65.2854764 C41.6077601,64.883935 41.9306775,64.5593618 42.3285578,64.5593618 C42.7264382,64.5593618 43.0493556,64.883935 43.0493556,65.2854764 L43.0493556,75.0248522 C43.0493556,75.4263936 42.7264382,75.7509669 42.3285578,75.7509669" id="Fill-59" fill="#FEFEFE" mask="url(#mask-2)"></path>
                <path d="M68.2941425,74.7936573 C67.8962621,74.7936573 67.5733447,74.4690841 67.5733447,74.0675427 L67.5733447,40.065772 C67.5733447,39.6642306 67.8962621,39.3396573 68.2941425,39.3396573 C68.6920228,39.3396573 69.0149402,39.6642306 69.0149402,40.065772 L69.0149402,74.0675427 C69.0149402,74.4690841 68.6920228,74.7936573 68.2941425,74.7936573" id="Fill-60" fill="#FEFEFE" mask="url(#mask-2)"></path>
                <path d="M73.9957966,74.7936573 C73.5979162,74.7936573 73.2749989,74.4690841 73.2749989,74.0675427 L73.2749989,50.1987019 C73.2749989,49.7971605 73.5979162,49.4725873 73.9957966,49.4725873 C74.3936769,49.4725873 74.7165943,49.7971605 74.7165943,50.1987019 L74.7165943,74.0675427 C74.7165943,74.4690841 74.3936769,74.7936573 73.9957966,74.7936573" id="Fill-61" fill="#FEFEFE" mask="url(#mask-2)"></path>
                <path d="M79.6974507,74.7936573 C79.2995704,74.7936573 78.976653,74.4690841 78.976653,74.0675427 L78.976653,55.6663452 C78.976653,55.2648038 79.2995704,54.9402306 79.6974507,54.9402306 C80.0953311,54.9402306 80.4182484,55.2648038 80.4182484,55.6663452 L80.4182484,74.0675427 C80.4182484,74.4690841 80.0953311,74.7936573 79.6974507,74.7936573" id="Fill-62" fill="#FEFEFE" mask="url(#mask-2)"></path>
                <path d="M85.3990328,74.7936573 C85.0011524,74.7936573 84.678235,74.4690841 84.678235,74.0675427 L84.678235,58.0799503 C84.678235,57.679135 85.0011524,57.3538357 85.3990328,57.3538357 C85.7969131,57.3538357 86.1198305,57.679135 86.1198305,58.0799503 L86.1198305,74.0675427 C86.1198305,74.4690841 85.7969131,74.7936573 85.3990328,74.7936573" id="Fill-63" fill="#FEFEFE" mask="url(#mask-2)"></path>
                <path d="M91.1006869,74.7936573 C90.7028066,74.7936573 90.3798892,74.4690841 90.3798892,74.0675427 L90.3798892,62.1331223 C90.3798892,61.732307 90.7028066,61.4070076 91.1006869,61.4070076 C91.4985672,61.4070076 91.8214846,61.732307 91.8214846,62.1331223 L91.8214846,74.0675427 C91.8214846,74.4690841 91.4985672,74.7936573 91.1006869,74.7936573" id="Fill-64" fill="#FEFEFE" mask="url(#mask-2)"></path>
                <path d="M96.8022689,74.7936573 C96.4043886,74.7936573 96.0814712,74.4690841 96.0814712,74.0675427 L96.0814712,65.285186 C96.0814712,64.8843707 96.4043886,64.5590713 96.8022689,64.5590713 C97.2001493,64.5590713 97.5230667,64.8843707 97.5230667,65.285186 L97.5230667,74.0675427 C97.5230667,74.4690841 97.2001493,74.7936573 96.8022689,74.7936573" id="Fill-65" fill="#FEFEFE" mask="url(#mask-2)"></path>
                <path d="M102.503923,74.7936573 C102.106043,74.7936573 101.783125,74.4690841 101.783125,74.0675427 L101.783125,68.4379758 C101.783125,68.0364344 102.106043,67.7118611 102.503923,67.7118611 C102.901803,67.7118611 103.224721,68.0364344 103.224721,68.4379758 L103.224721,74.0675427 C103.224721,74.4690841 102.901803,74.7936573 102.503923,74.7936573" id="Fill-66" fill="#FEFEFE" mask="url(#mask-2)"></path>
                <path d="M108.205505,74.7936573 C107.807625,74.7936573 107.484707,74.4690841 107.484707,74.0675427 L107.484707,68.4379758 C107.484707,68.0364344 107.807625,67.7118611 108.205505,67.7118611 C108.603385,67.7118611 108.926303,68.0364344 108.926303,68.4379758 L108.926303,74.0675427 C108.926303,74.4690841 108.603385,74.7936573 108.205505,74.7936573" id="Fill-67" fill="#FEFEFE" mask="url(#mask-2)"></path>
                <path d="M113.907159,74.7936573 C113.509279,74.7936573 113.186362,74.4690841 113.186362,74.0675427 L113.186362,68.4379758 C113.186362,68.0364344 113.509279,67.7118611 113.907159,67.7118611 C114.30504,67.7118611 114.627957,68.0364344 114.627957,68.4379758 L114.627957,74.0675427 C114.627957,74.4690841 114.30504,74.7936573 113.907159,74.7936573" id="Fill-68" fill="#FEFEFE" mask="url(#mask-2)"></path>
                <path d="M119.608813,74.7936573 C119.210933,74.7936573 118.888016,74.4690841 118.888016,74.0675427 L118.888016,68.4379758 C118.888016,68.0364344 119.210933,67.7118611 119.608813,67.7118611 C120.006694,67.7118611 120.329611,68.0364344 120.329611,68.4379758 L120.329611,74.0675427 C120.329611,74.4690841 120.006694,74.7936573 119.608813,74.7936573" id="Fill-69" fill="#FEFEFE" mask="url(#mask-2)"></path>
                <path d="M139.04534,10.3978166 C141.679135,11.439065 143.750708,13.5259185 144.784332,16.1791414 C145.817956,13.5259185 147.889528,11.439065 150.523323,10.3978166 C147.889528,9.35656815 145.817956,7.26971465 144.784332,4.61649172 C143.750708,7.26971465 141.679135,9.35656815 139.04534,10.3978166 M144.784332,20.7950522 C144.38573,20.7950522 144.063534,20.470479 144.063534,20.0689376 C144.063534,15.0529376 140.163297,11.1239312 135.184027,11.1239312 C134.785426,11.1239312 134.463229,10.799358 134.463229,10.3978166 C134.463229,9.99627516 134.785426,9.67170191 135.184027,9.67170191 C140.163297,9.67170191 144.063534,5.74269554 144.063534,0.726695541 C144.063534,0.32515414 144.38573,0.000580891719 144.784332,0.000580891719 C145.182933,0.000580891719 145.505129,0.32515414 145.505129,0.726695541 C145.505129,5.74269554 149.405366,9.67170191 154.383916,9.67170191 C154.782517,9.67170191 155.104713,9.99627516 155.104713,10.3978166 C155.104713,10.799358 154.782517,11.1239312 154.383916,11.1239312 C149.405366,11.1239312 145.505129,15.0529376 145.505129,20.0689376 C145.505129,20.470479 145.182933,20.7950522 144.784332,20.7950522" id="Fill-70" fill="#FEFEFE" mask="url(#mask-2)"></path>
            </g>
        </g>
    </g>
</svg>