<?xml version="1.0" encoding="UTF-8"?>
<svg width="24px" height="24px" viewBox="0 0 24 24" version="1.1" xmlns="http://www.w3.org/2000/svg" xmlns:xlink="http://www.w3.org/1999/xlink">
    <!-- Generator: Sketch 44.1 (41455) - http://www.bohemiancoding.com/sketch -->
    <title>Artboard 2</title>
    <desc>Created with Sketch.</desc>
    <defs></defs>
    <g id="Page-1" stroke="none" stroke-width="1" fill="none" fill-rule="evenodd">
        <g id="Artboard-2">
            <g id="Page-1-Copy-16">
                <polygon id="Stroke-1" stroke-opacity="0.00784313771" stroke="#000000" stroke-width="1.33333335e-11" points="0 0 23.9999985 0 23.9999985 23.9999985 0 23.9999985"></polygon>
                <path d="M16.4999991,13.9999992 L15.7099991,13.9999992 L15.4299994,13.7299987 C16.4099989,12.5899993 16.999999,11.1099989 16.999999,9.49999943 C16.999999,5.90999949 14.0899993,2.99999982 10.4999994,2.99999982 C6.90999949,2.99999982 3.99999982,5.90999949 3.99999982,9.49999943 C3.99999982,13.0899993 6.90999949,15.999999 10.4999994,15.999999 C12.1099989,15.999999 13.5899993,15.4099989 14.7299987,14.4299994 L14.9999992,14.7099991 L14.9999992,15.4999991 L19.9999989,20.4899985 L21.4899985,18.9999989 L16.4999991,13.9999992 Z M10.4999994,13.9999992 C8.0099998,13.9999992 5.9999997,11.989999 5.9999997,9.49999943 C5.9999997,7.0099998 8.0099998,4.9999997 10.4999994,4.9999997 C12.989999,4.9999997 14.9999992,7.0099998 14.9999992,9.49999943 C14.9999992,11.989999 12.989999,13.9999992 10.4999994,13.9999992 Z" id="Fill-2" fill="#FFFFFF"></path>
            </g>
        </g>
    </g>
</svg>