<?xml version="1.0" encoding="UTF-8"?>
<svg width="250px" height="250px" viewBox="0 0 250 250" version="1.1" xmlns="http://www.w3.org/2000/svg" xmlns:xlink="http://www.w3.org/1999/xlink">
    <!-- Generator: Sketch 44.1 (41455) - http://www.bohemiancoding.com/sketch -->
    <title>Artboard 4 Copy 2</title>
    <desc>Created with Sketch.</desc>
    <defs>
        <polygon id="path-1" points="0.0001 149 148.242 149 148.242 0.758 0.0001 0.758"></polygon>
    </defs>
    <g id="Page-1" stroke="none" stroke-width="1" fill="none" fill-rule="evenodd">
        <g id="Artboard-4-Copy-2">
            <g id="Page-1" transform="translate(51.000000, 50.000000)">
                <path d="M86.6125,78.8749 C86.6125,86.3959 81.0765,96.4969 74.2475,96.4969 C67.4185,96.4969 61.8825,86.3959 61.8825,78.8749 C61.8825,78.4989 61.9055,78.1299 61.9325,77.7619 C59.4475,73.5179 57.9395,68.4319 57.9395,64.0289 C57.9395,54.3309 65.2405,46.4699 74.2475,46.4699 C83.2535,46.4699 90.5545,54.3309 90.5545,64.0289 C90.5545,68.4319 89.0475,73.5179 86.5605,77.7619 C86.5885,78.1299 86.6125,78.4989 86.6125,78.8749 L86.6125,78.8749 Z M25.8145,122.8509 L122.1415,122.8509 L122.1415,26.5239 L25.8145,26.5239 L25.8145,122.8509 Z" id="Fill-1" fill="#29E59F"></path>
                <g id="Group-5" transform="translate(0.000000, 0.242000)">
                    <mask id="mask-2" fill="white">
                        <use xlink:href="#path-1"></use>
                    </mask>
                    <g id="Clip-4"></g>
                    <path d="M130.7111,7.0655 L141.9341,7.0655 L141.9341,18.2895 C136.4821,19.6975 133.4181,23.6225 133.4181,29.3775 C133.4181,35.1345 136.4821,39.0595 141.9341,40.4665 L141.9341,48.6235 C136.4821,50.0315 133.4181,53.9575 133.4181,59.7115 C133.4181,65.4675 136.4821,69.3925 141.9341,70.8005 L141.9341,78.9565 C136.4821,80.3645 133.4181,84.2895 133.4181,90.0455 C133.4181,95.8005 136.4821,99.7255 141.9341,101.1335 L141.9341,109.2905 C136.4821,110.6995 133.4181,114.6245 133.4181,120.3785 C133.4181,126.1355 136.4821,130.0605 141.9341,131.4685 L141.9341,142.6915 L130.7111,142.6915 C129.3021,137.2395 125.3771,134.1745 119.6221,134.1745 C113.8661,134.1745 109.9401,137.2395 108.5321,142.6915 L100.3771,142.6915 C98.9691,137.2395 95.0431,134.1745 89.2881,134.1745 C83.5321,134.1745 79.6071,137.2395 78.1991,142.6915 L70.0441,142.6915 C68.6361,137.2395 64.7101,134.1745 58.9541,134.1745 C53.1991,134.1745 49.2741,137.2395 47.8651,142.6915 L39.7091,142.6915 C38.3011,137.2395 34.3761,134.1745 28.6211,134.1745 C22.8641,134.1745 18.9401,137.2395 17.5311,142.6915 L6.3081,142.6915 L6.3081,131.4685 C11.7611,130.0605 14.8241,126.1355 14.8241,120.3785 C14.8241,114.6245 11.7601,110.6995 6.3081,109.2905 L6.3081,101.1335 C11.7601,99.7255 14.8241,95.8005 14.8241,90.0455 C14.8241,84.2895 11.7611,80.3645 6.3081,78.9565 L6.3081,70.8005 C11.7601,69.3925 14.8241,65.4675 14.8241,59.7115 C14.8241,53.9575 11.7601,50.0315 6.3081,48.6235 L6.3081,40.4665 C11.7611,39.0595 14.8241,35.1345 14.8241,29.3775 C14.8241,23.6225 11.7601,19.6975 6.3081,18.2895 L6.3081,7.0655 L17.5311,7.0655 C18.9401,12.5185 22.8641,15.5825 28.6211,15.5825 C34.3761,15.5825 38.3011,12.5175 39.7091,7.0655 L47.8651,7.0655 C49.2741,12.5175 53.1991,15.5825 58.9541,15.5825 C64.7111,15.5825 68.6361,12.5185 70.0441,7.0655 L78.1991,7.0655 C79.6071,12.5175 83.5321,15.5825 89.2881,15.5825 C95.0431,15.5825 98.9691,12.5175 100.3771,7.0655 L108.5321,7.0655 C109.9401,12.5185 113.8651,15.5825 119.6221,15.5825 C125.3771,15.5825 129.3021,12.5175 130.7111,7.0655 L130.7111,7.0655 Z M124.9151,3.6265 C124.4621,8.6025 121.9851,9.2735 119.6221,9.2735 C117.2581,9.2735 114.7801,8.6025 114.3281,3.6275 L114.0681,0.7575 L94.8431,0.7575 L94.5821,3.6265 C94.1281,8.6025 91.6511,9.2735 89.2881,9.2735 C86.9251,9.2735 84.4481,8.6025 83.9941,3.6265 L83.7331,0.7575 L64.5081,0.7575 L64.2471,3.6275 C63.7961,8.6025 61.3181,9.2735 58.9541,9.2735 C56.5911,9.2735 54.1131,8.6025 53.6611,3.6265 L53.3991,0.7575 L34.1751,0.7575 L33.9141,3.6265 C33.4611,8.6025 30.9841,9.2735 28.6211,9.2735 C26.2571,9.2735 23.7791,8.6025 23.3271,3.6275 L23.0671,0.7575 L0.0001,0.7575 L0.0001,23.8235 L2.8681,24.0855 C7.8451,24.5375 8.5161,27.0145 8.5161,29.3775 C8.5161,31.7425 7.8451,34.2185 2.8691,34.6705 L0.0001,34.9315 L0.0001,54.1575 L2.8681,54.4185 C7.8451,54.8725 8.5161,57.3485 8.5161,59.7115 C8.5161,62.0755 7.8451,64.5515 2.8681,65.0045 L0.0001,65.2665 L0.0001,84.4925 L2.8691,84.7525 C7.8451,85.2045 8.5161,87.6815 8.5161,90.0455 C8.5161,92.4095 7.8451,94.8855 2.8681,95.3385 L0.0001,95.5995 L0.0001,114.8255 L2.8681,115.0865 C7.8451,115.5385 8.5161,118.0155 8.5161,120.3785 C8.5161,122.7435 7.8451,125.2205 2.8691,125.6715 L0.0001,125.9325 L0.0001,149.0005 L23.0671,149.0005 L23.3271,146.1305 C23.7791,141.1545 26.2571,140.4835 28.6211,140.4835 C30.9841,140.4835 33.4601,141.1545 33.9141,146.1315 L34.1751,149.0005 L53.3991,149.0005 L53.6611,146.1315 C54.1141,141.1545 56.5911,140.4835 58.9541,140.4835 C61.3181,140.4835 63.7961,141.1545 64.2471,146.1305 L64.5081,149.0005 L83.7331,149.0005 L83.9941,146.1315 C84.4481,141.1545 86.9251,140.4835 89.2881,140.4835 C91.6511,140.4835 94.1281,141.1545 94.5821,146.1315 L94.8431,149.0005 L114.0681,149.0005 L114.3281,146.1305 C114.7801,141.1545 117.2581,140.4835 119.6221,140.4835 C121.9851,140.4835 124.4621,141.1545 124.9151,146.1315 L125.1761,149.0005 L148.2421,149.0005 L148.2421,125.9325 L145.3731,125.6715 C140.3971,125.2205 139.7271,122.7435 139.7271,120.3785 C139.7271,118.0155 140.3971,115.5385 145.3741,115.0865 L148.2421,114.8255 L148.2421,95.5995 L145.3741,95.3385 C140.3971,94.8855 139.7271,92.4095 139.7271,90.0455 C139.7271,87.6815 140.3971,85.2045 145.3731,84.7525 L148.2421,84.4925 L148.2421,65.2665 L145.3741,65.0045 C140.3971,64.5515 139.7271,62.0755 139.7271,59.7115 C139.7271,57.3485 140.3971,54.8725 145.3741,54.4185 L148.2421,54.1575 L148.2421,34.9315 L145.3731,34.6705 C140.3971,34.2185 139.7271,31.7425 139.7271,29.3775 C139.7271,27.0145 140.3971,24.5375 145.3741,24.0855 L148.2421,23.8235 L148.2421,0.7575 L125.1761,0.7575 L124.9151,3.6265 Z" id="Fill-3" fill="#333333" mask="url(#mask-2)"></path>
                </g>
                <path d="M29.0178,30.0175 L119.2248,30.0175 L119.2248,120.2235 L112.7108,120.2235 C112.0048,99.4675 104.1338,88.3515 87.2018,84.9285 C88.4128,83.7985 89.5198,82.4935 90.5018,81.0195 C93.8008,76.0715 95.6178,69.4785 95.6178,62.4555 C95.6178,49.5985 86.9788,40.9595 74.1218,40.9595 C61.2638,40.9595 52.6238,49.5985 52.6238,62.4555 C52.6238,69.4785 54.4418,76.0715 57.7408,81.0195 C58.7228,82.4935 59.8298,83.7985 61.0408,84.9285 C44.1088,88.3515 36.2378,99.4675 35.5308,120.2235 L29.0178,120.2235 L29.0178,30.0175 Z M85.7578,87.0335 L85.7558,87.0335 L85.7578,87.0335 Z M74.1378,83.7565 C74.1318,83.7565 74.1268,83.7575 74.1218,83.7575 C74.1158,83.7575 74.1108,83.7565 74.1048,83.7565 C63.6808,83.7455 58.9328,72.7095 58.9328,62.4555 C58.9328,61.6445 58.9898,60.8715 59.0708,60.1185 C61.7158,61.5995 64.7588,62.4555 68.0068,62.4555 C73.9378,62.4555 79.2078,59.6385 82.5608,55.2725 C84.1588,57.8225 86.4918,59.8605 89.2578,61.1065 C89.2848,61.5495 89.3098,61.9945 89.3098,62.4555 C89.3098,72.7095 84.5618,83.7455 74.1378,83.7565 L74.1378,83.7565 Z M81.8458,90.4535 C80.3088,94.6915 77.0278,95.2715 74.4758,95.2715 C71.9098,95.2715 68.6048,94.6885 67.0788,90.3875 C66.8848,89.8435 66.7288,89.2235 66.5978,88.5545 C68.9188,89.5415 71.4408,90.0625 74.1028,90.0655 C74.1088,90.0655 74.1148,90.0665 74.1218,90.0665 C74.1268,90.0665 74.1328,90.0655 74.1398,90.0655 C77.1018,90.0625 79.8948,89.4235 82.4248,88.2055 C82.2798,89.0505 82.0838,89.7955 81.8458,90.4535 L81.8458,90.4535 Z M63.1928,87.0335 L63.1928,87.0335 L63.1958,87.0335 L63.1928,87.0335 Z M22.7088,126.5325 L35.4718,126.5325 L112.7708,126.5325 L125.5328,126.5325 L125.5328,23.7085 L22.7088,23.7085 L22.7088,126.5325 Z" id="Fill-6" fill="#333333"></path>
            </g>
        </g>
    </g>
</svg>